<svg width="192" height="181" viewBox="0 0 192 181" fill="none" xmlns="http://www.w3.org/2000/svg">
<path d="M69.6697 172.777C115.724 180.734 139.489 164.807 139.61 164.334C140.899 163.574 142.2 162.823 143.421 161.96C145.363 160.588 147.255 159.144 149.143 157.697C150.073 156.984 150.982 156.234 151.832 155.428C152.443 154.848 152.894 154.101 153.498 153.513C154.884 152.162 156.374 150.916 157.723 149.53C160.146 147.042 162.531 144.515 164.866 141.944C166.752 139.868 168.569 137.726 170.365 135.569C171.612 134.07 172.773 132.498 173.97 130.956C174.966 129.673 176.047 128.444 176.927 127.085C177.968 125.478 178.878 123.782 179.764 122.081C180.675 120.331 181.567 118.562 182.324 116.742C183.231 114.563 184.446 112.491 184.543 110.014C184.622 108.005 184.969 106.006 185.085 103.997C185.221 101.634 184.94 99.2891 184.519 96.9632C184.156 94.9551 183.636 92.9806 182.65 91.1935C181.609 89.3091 180.48 87.4654 179.271 85.6849C177.819 83.547 176.085 81.6604 173.972 80.1212C171.999 78.6844 169.85 77.6055 167.609 76.6977C165.514 75.8489 163.38 75.0936 161.277 74.2643C160.07 73.7884 158.896 73.2285 157.693 72.7399C155.744 71.9479 153.764 71.2303 151.833 70.3965C148.823 69.0965 146.157 67.3047 143.96 64.8174C142.529 63.1977 140.975 61.6867 139.459 60.1439C137.967 58.6258 136.439 57.1428 134.956 55.6163C134.333 54.9756 133.836 54.2086 133.19 53.5955C132.235 52.6887 131.211 51.8533 130.194 51.0146C129.188 50.1853 128.24 49.2373 127.117 48.6103C124.633 47.2239 122.168 45.7851 119.396 44.9733C116.988 44.2682 114.644 43.4128 112.137 42.9977C109.548 42.569 106.978 42.1723 104.352 42.1753C100.986 42.1793 97.6191 42.167 94.2527 42.1829C93.4249 42.1869 92.5866 42.2052 91.7719 42.3349C89.577 42.6846 87.3876 43.0735 85.205 43.4937C83.4631 43.829 81.7319 44.2224 80.0006 44.6104L79.9397 44.624C78.6775 44.9068 77.4139 45.19 76.1667 45.5307C73.9941 46.1243 71.8302 46.751 69.6697 47.3877C66.7187 48.2574 64.0981 49.96 61.1052 50.7564C59.5119 51.1804 57.9776 51.851 56.4485 52.4868C53.8239 53.5781 51.2164 54.7113 48.6177 55.8632C47.4091 56.3989 46.276 57.1224 45.0417 57.5798C42.5544 58.5016 40.2332 59.7328 38.0356 61.1867C36.2333 62.379 34.5492 63.7491 32.7635 64.9683C30.2682 66.672 27.8967 68.5108 26.0056 70.8909C24.6514 72.5952 23.2282 74.267 22.0757 76.1041C20.4472 78.6998 18.9558 81.3915 17.563 84.1226C16.2609 86.6757 15.1364 89.3216 13.9866 91.9498C13.2327 93.673 12.4818 95.4074 11.8944 97.1912C11.2103 99.2685 10.7625 101.423 10.106 103.51C9.58115 105.18 9.38782 106.871 9.40665 108.6C9.41172 109.065 9.53376 109.529 9.53971 109.995C9.59763 114.534 9.62945 119.073 9.70264 123.612C9.7157 124.422 9.85967 125.234 9.98687 126.037C10.2094 127.444 10.4551 128.846 10.7113 130.247C10.9251 131.416 11.0725 132.608 11.416 133.739C12.4027 136.989 13.6718 140.132 15.3604 143.086C16.4723 145.032 17.6262 146.954 18.809 148.857C19.1772 149.449 19.7067 149.94 20.1532 150.485C21.057 151.588 21.7595 152.541 22.867 153.791C35.9537 168.563 54.4827 170.154 69.6697 172.777Z" fill="#826DC7"/>
<path d="M5.11095 131.427C4.17324 129.217 3.43778 127.026 3.05892 124.707C2.75796 122.865 2.26437 121.055 1.9286 119.218C1.74816 118.23 1.75167 117.211 1.61604 116.213C1.38283 114.498 1.10613 112.789 0.846858 111.078C0.719004 110.233 0.551147 109.393 0.467333 108.545C0.162602 105.461 -0.0779012 102.373 0.0235902 99.2682C0.0771212 97.631 0.0156159 95.9816 0.196441 94.359C0.425378 92.3047 0.864819 90.2745 1.1814 88.229C1.40471 86.786 1.52385 85.3257 1.77978 83.8893C2.21329 81.4563 2.9559 79.1162 4.20957 76.9705C4.76048 76.0276 5.38553 75.1278 5.98426 74.2133C6.38876 73.5955 7.65635 73.055 8.202 73.1716C8.95128 73.3317 9.22215 73.8839 9.15511 74.4947C9.02544 75.6759 8.8301 76.8631 8.51745 78.0083C7.87111 80.3759 7.04847 82.6971 6.45509 85.0766C6.02241 86.8117 5.83169 88.6081 5.5492 90.3798C5.20064 92.5659 4.86027 94.7534 4.53534 96.943C4.44918 97.5237 4.41297 98.1138 4.38823 98.701C4.32777 100.136 4.29335 101.571 4.2369 103.006C4.1995 103.956 4.0674 104.909 4.10851 105.855C4.20817 108.15 4.36611 110.442 4.53613 112.732C4.64706 114.227 4.79061 115.72 4.97504 117.207C5.12218 118.394 5.35467 119.569 5.54652 120.751C5.74218 121.955 5.88978 123.17 6.14147 124.363C6.36958 125.444 6.67821 126.511 7.00631 127.567C7.86012 130.315 8.72519 133.06 9.62231 135.795C10.2939 137.842 11.0276 139.868 11.723 141.908C12.0291 142.805 11.8375 143.329 11.1472 143.332C10.5973 143.335 10.1526 142.985 9.90956 142.461C9.70226 142.014 9.52955 141.551 9.32368 141.103C8.3588 139.005 7.36772 136.919 6.4272 134.81C5.94393 133.727 5.54693 132.605 5.11095 131.427Z" fill="#826DC7"/>
<path d="M173.447 56.1158C171.492 56.6009 169.622 57.1421 167.724 57.552C166.372 57.8439 164.958 58.217 163.616 58.0875C161.954 57.9272 160.191 58.4329 158.626 57.5596C157.596 56.9847 156.589 56.3521 155.638 55.6541C153.863 54.3505 152.695 52.5491 151.736 50.6002C150.703 48.5012 150.052 46.2756 149.624 43.9856C149.461 43.1166 149.296 42.2172 149.351 41.3456C149.434 40.0367 149.691 38.7369 149.909 37.439C150.178 35.8279 150.747 34.3125 151.425 32.8312C152.357 30.795 154.029 29.4544 155.776 28.2052C157.821 26.743 160.055 25.5971 162.46 24.8841C163.88 24.4629 165.386 24.3113 166.863 24.1099C169.719 23.7205 172.485 24.4403 175.196 25.1095C179.08 26.0687 181.305 28.921 182.425 32.61C183.039 34.6302 183.345 36.7458 183.759 38.8246C183.988 39.974 184.25 41.1305 184.316 42.2941C184.369 43.2396 184.223 44.2141 184.041 45.1516C183.685 46.9863 182.905 48.6601 181.879 50.2166C181.042 51.4865 179.842 52.3946 178.694 53.3471C177.16 54.6197 175.349 55.3879 173.447 56.1158Z" fill="#826DC7"/>
<path d="M180.579 70.1265C180.114 69.5161 179.608 68.982 179.289 68.3524C179.109 67.9962 179.113 67.4371 179.255 67.0511C179.507 66.3671 180.226 66.4067 180.748 66.5583C181.293 66.7167 181.828 67.0688 182.253 67.4605C184.517 69.5458 186.509 71.887 188.197 74.4493C189.625 76.617 190.742 78.9754 191.139 81.5844C191.398 83.2882 191.626 85.0056 191.714 86.7248C191.876 89.9301 192.002 93.1412 192 96.3498C191.998 99.0743 191.539 101.746 190.427 104.271C190.061 105.102 188.833 106.176 187.806 106.116C186.998 106.069 186.21 105.481 186.231 104.678C186.262 103.511 186.401 102.342 186.56 101.183C186.745 99.8407 187.02 98.511 187.222 97.1705C187.394 96.0226 187.619 94.8693 187.641 93.715C187.676 91.797 187.681 89.8646 187.485 87.9603C187.301 86.1696 186.886 84.397 186.489 82.6355C186.018 80.5492 185.528 78.4498 184.455 76.5732C183.219 74.4111 181.899 72.2975 180.579 70.1265Z" fill="#826DC7"/>
<path d="M18.3817 62.4139C17.7883 63.0881 17.2065 63.7062 16.679 64.3677C15.3746 66.0037 14.0989 67.6625 12.8031 69.3054C12.4244 69.7855 11.9037 70.0884 11.3272 69.7989C10.755 69.5116 10.8336 68.8778 10.8649 68.3351C10.9374 67.0798 11.5762 66.0331 12.2721 65.0695C13.7328 63.0472 15.2702 61.073 17.0902 59.3543C18.9926 57.5579 20.9939 55.8829 23.1833 54.4299C24.3619 53.6478 25.4955 52.8178 26.9191 52.5687C27.2337 52.5137 27.7953 52.5379 27.8641 52.6936C28.0002 53.0016 28.0092 53.5258 27.8244 53.7832C27.4221 54.3434 26.8885 54.8187 26.3663 55.2808C25.4546 56.0877 24.4905 56.8355 23.5854 57.6493C21.8493 59.2101 20.139 60.7998 18.3817 62.4139Z" fill="#826DC7"/>
<path d="M107.29 28.9882C107.205 26.336 106.523 29.2412 106.906 30.0231C106.92 30.0468 106.938 30.0676 106.959 30.0843C106.981 30.101 107.006 30.1133 107.032 30.1204C107.058 30.1276 107.086 30.1294 107.113 30.1258C107.14 30.1223 107.166 30.1134 107.19 30.0997C107.221 30.0802 107.247 30.054 107.267 30.0231C107.332 29.6812 107.332 29.3301 107.267 28.9882H107.29ZM100.038 39.7812C99.5244 39.7812 93.9899 39.4976 94.0205 39.9192C93.6756 39.8196 94.0205 42.2955 94.0205 42.5868C94.0205 42.8781 94.6108 42.8321 94.7871 42.8474C96.3202 42.9624 100.567 42.9318 100.919 42.9318C101.272 42.9318 101.065 40.0189 101.057 40.0112C101.05 39.6893 100.222 39.7889 100.038 39.7812ZM100.705 42.5638C99.3941 42.5638 95.6533 42.4718 94.4115 42.5638C94.3195 41.7206 94.2275 40.8774 94.1432 40.0342L100.728 40.1645C100.674 40.9617 100.705 41.7666 100.705 42.5638ZM90.4101 43.591C90.4395 43.5877 90.4668 43.5745 90.4877 43.5536C90.5086 43.5327 90.5218 43.5054 90.5251 43.476V41.5213C90.5251 41.23 90.0575 41.1764 90.0728 41.4753C90.0728 42.1499 90.1571 42.8168 90.2108 43.4837C90.2114 43.5067 90.218 43.5291 90.23 43.5487C90.242 43.5683 90.259 43.5843 90.2793 43.5952C90.2995 43.6061 90.3223 43.6115 90.3452 43.6107C90.3682 43.61 90.3906 43.6032 90.4101 43.591ZM106.998 38.938C106.968 38.9422 106.941 38.9555 106.919 38.976C106.897 38.9966 106.882 39.0235 106.876 39.053C106.876 39.375 106.669 41.2147 107.052 41.253C107.527 41.253 107.205 39.467 107.159 39.0377C107.15 39.0037 107.128 38.9744 107.099 38.9559C107.069 38.9374 107.033 38.931 106.998 38.938ZM107.205 43.2001C107.129 42.6711 106.86 42.7095 106.83 43.43V44.2886C106.83 44.8405 107.489 45.2774 107.205 43.2001ZM107.037 46.6419C106.623 46.6802 106.945 48.5889 106.998 48.9415C106.998 49.0718 107.236 49.1025 107.244 48.9415C107.244 48.2516 107.244 47.5617 107.29 46.8718C107.291 46.8392 107.285 46.8067 107.273 46.7766C107.26 46.7465 107.241 46.7195 107.217 46.6975C107.193 46.6756 107.164 46.6592 107.133 46.6496C107.102 46.64 107.069 46.6373 107.037 46.6419ZM107.244 31.7401C107.244 31.5792 106.96 31.6022 106.929 31.7401C106.899 31.8781 106.669 34.3464 107.205 33.7332C107.32 33.0712 107.32 32.3944 107.205 31.7325L107.244 31.7401ZM106.822 35.8488V37.3819C106.822 37.6886 107.305 37.6426 107.29 37.3819C107.29 36.876 107.29 36.3701 107.213 35.8488C107.167 35.0363 106.837 34.9903 106.822 35.8488ZM106.929 50.8272C106.814 51.4917 106.814 52.1711 106.929 52.8356C106.929 53.0042 107.213 52.9736 107.244 52.8356C107.274 52.6976 107.466 50.214 106.929 50.8272ZM127.457 29.6475C127.893 29.7185 128.293 29.9282 128.6 30.2454C128.768 30.4217 128.983 30.115 128.354 29.6091C127.312 28.7889 126.875 29.5401 127.457 29.6475ZM126.898 32.614C127.58 32.4224 127.013 31.0042 126.806 32.1004C126.783 32.1924 126.714 32.6677 126.898 32.614ZM127.419 37.4356C129.719 37.4816 129.037 33.9095 128.6 34.676C127.588 36.4008 125.871 36.0328 125.748 36.2091C125.625 36.3854 126.338 37.4203 127.419 37.4356ZM128.715 35.0746C129.228 37.1903 126.952 37.8419 126.047 36.4008C126.568 36.4247 127.086 36.3155 127.553 36.0834C128.019 35.8514 128.419 35.5042 128.715 35.0746ZM107.152 26.4279C107.182 26.4139 107.208 26.3929 107.228 26.3666C107.355 25.698 107.355 25.0116 107.228 24.3429C107.228 24.2203 107.006 24.1819 106.968 24.3429C106.848 25.0109 106.83 25.6932 106.914 26.3666C106.939 26.4043 106.977 26.4314 107.021 26.4427C107.065 26.454 107.111 26.4488 107.152 26.4279ZM124 34.4154C124.154 35.1053 125.963 34.3541 124.376 34.2774C124.476 33.2867 124.684 32.3098 124.997 31.3645C125.119 30.9506 124.453 31.1346 124.062 33.8865C124.01 34.0579 123.99 34.2369 124 34.4154ZM90.0958 45.4997C90.112 46.1773 90.1709 46.8532 90.2721 47.5234C90.2721 47.5559 90.285 47.5871 90.308 47.6101C90.331 47.6331 90.3622 47.646 90.3948 47.646C90.4273 47.646 90.4585 47.6331 90.4815 47.6101C90.5045 47.5871 90.5174 47.5559 90.5174 47.5234C90.778 44.1122 90.0958 45.4537 90.0958 45.4997ZM122.935 31.1652C122.659 31.5332 122.713 32.2001 123.019 31.9318C123.326 31.6635 123.126 30.9046 122.935 31.1652ZM90.1418 53.5025C89.7662 54.3304 90.6094 57.3352 90.5711 54.0314C90.5634 53.5025 90.3181 53.1269 90.1418 53.5025ZM90.1571 51.4405C90.1571 51.6014 90.4484 51.5784 90.4791 51.4405C90.5097 51.3025 90.732 48.8342 90.2031 49.4398C90.0727 50.1016 90.0571 50.781 90.1571 51.4481V51.4405Z" fill="black"/>
<path d="M120.145 25.669C120.645 26.1224 121.211 26.4972 121.823 26.7805C120.857 29.977 118.803 40.2411 124.238 40.8543C124.238 41.3449 124.192 41.8355 124.169 42.3338C122.49 42.8533 120.877 43.5658 119.363 44.4571C118.742 45.469 118.121 46.4885 117.538 47.5233C116.771 48.951 116.082 50.4199 115.476 51.9233C116.554 52.3174 117.559 52.8873 118.451 53.6097C119.37 54.2996 117.73 55.3498 117.071 56.1853C118.937 59.6087 121.377 62.6863 124.284 65.2843C124.46 64.2264 124.667 63.3219 124.752 62.9846C122.989 59.9184 120.689 48.4202 120.957 44.1275C121.417 43.8975 121.877 43.6906 122.337 43.4989C122.337 44.3728 123.172 46.4808 124.062 46.6954C124.161 47.0021 124.56 46.3888 124.828 46.1205C124.974 46.6494 125.173 47.1937 125.265 47.5923C125.902 47.4559 126.565 47.5065 127.174 47.7379C127.496 47.2933 128.04 46.6571 128.308 46.3582C128.439 46.5345 128.653 46.9101 128.883 46.8717C130.715 46.5268 133.483 44.7791 134.425 43.0773C134.993 43.223 135.545 43.3839 136.097 43.5679C131.091 49.0564 126.131 58.4313 124.844 65.5986C128.155 63.2069 133.605 59.2209 136.189 56.7602C134.188 53.6404 132.517 53.8703 136.533 53.0808C137.3 52.9351 138.028 52.7895 138.779 52.6822C138.58 49.6875 138.243 46.7082 137.768 43.7442C136.056 43.0088 134.25 42.516 132.402 42.2801C132.356 41.0919 132.402 39.8961 132.402 38.708C132.402 38.708 137.867 32.1846 137.223 27.869C136.97 26.1442 135.621 26.0139 134.218 26.4662C135.299 25.4313 136.595 25.5923 136.518 24.9331C136.403 23.9596 133.943 24.5421 133.145 25.9679C130.884 21.2996 125.48 19.9735 128.454 23.4843C126.499 22.1965 124.315 21.0697 121.908 21.0697C118.313 21.016 117.883 23.6146 120.145 25.669ZM124.177 46.3658C123.718 45.9988 123.336 45.5441 123.055 45.0282C122.773 44.5123 122.597 43.9456 122.536 43.3609C123.096 43.131 123.655 42.924 124.23 42.7324C124.891 43.3295 125.582 43.8924 126.3 44.4188C125.461 44.9178 124.737 45.5893 124.177 46.3888V46.3658ZM132.417 42.5944C132.969 42.7094 133.513 42.8244 134.057 42.9623C132.715 44.6034 130.95 45.8466 128.952 46.5575C128.379 45.795 127.721 45.1005 126.99 44.4878C128.918 44.288 130.775 43.6481 132.417 42.6174V42.5944ZM122.084 26.8954C123.801 27.616 129.09 28.3826 130.999 28.3059C129.88 31.1421 131.175 33.9094 131.972 32.5986C132.195 32.223 132.578 31.6327 133.199 32.1233C133.559 32.4146 133.697 33.1198 133.069 34.239C132.404 35.3413 132.064 36.6086 132.087 37.8954C131.987 39.388 131.966 40.885 132.026 42.3798C130.383 43.3015 128.59 43.9244 126.729 44.2195L124.43 42.5177C124.506 41.5442 124.775 40.448 124.43 40.448C123.992 40.422 123.565 40.3025 123.178 40.0976C122.79 39.8926 122.451 39.607 122.184 39.2599C120.045 36.692 121.31 29.931 122.084 26.8954Z" fill="black"/>
<path d="M122.552 30.0842C122.736 29.9398 122.948 29.8347 123.175 29.7753C123.402 29.716 123.638 29.7038 123.87 29.7393C123.903 29.7353 123.934 29.7206 123.958 29.6974C123.982 29.6743 123.998 29.6439 124.003 29.611C124.008 29.5781 124.002 29.5443 123.987 29.5149C123.971 29.4855 123.946 29.462 123.916 29.448C122.536 29.126 122.099 30.4598 122.552 30.0842ZM125.303 47.9908C124.69 51.0162 124.08 54.0466 123.471 57.0821C123.823 58.7604 124.337 60.4008 125.004 61.9804C125.608 60.1567 126.307 58.3656 127.097 56.6145C126.913 54.4835 126.806 49.2786 126.89 48.3051C126.417 48.0117 125.853 47.9 125.303 47.9908ZM69.8205 28.9804C70.4645 28.8961 69.3376 25.1476 69.5369 28.4132C69.5599 28.6125 69.5369 29.0187 69.8205 28.9804ZM69.5446 60.6926C69.5446 60.9225 69.4833 61.7044 69.8512 61.6584C70.4951 61.5741 69.4219 58.117 69.5446 60.6926ZM69.9355 37.5581C69.9283 37.528 69.9111 37.5012 69.8868 37.482C69.8624 37.4628 69.8324 37.4524 69.8014 37.4524C69.7704 37.4524 69.7403 37.4628 69.716 37.482C69.6917 37.5012 69.6745 37.528 69.6672 37.5581C69.5459 38.2235 69.5303 38.9039 69.6212 39.5741C69.6427 39.6177 69.6805 39.6511 69.7265 39.6669C69.7725 39.6827 69.8228 39.6796 69.8665 39.6584C69.8953 39.6424 69.9212 39.6216 69.9432 39.5971C70.0654 38.9227 70.0628 38.2316 69.9355 37.5581ZM69.5676 65.1539C69.6136 65.4682 70.0505 65.4452 70.0352 64.8779C69.9662 63.0842 69.5599 63.0535 69.5523 63.9427C69.5216 64.3459 69.5216 64.7508 69.5523 65.1539H69.5676ZM69.5446 42.2264C69.5125 42.5605 69.5385 42.8976 69.6212 43.2229C69.6513 43.2699 69.698 43.3039 69.7519 43.3181C69.8059 43.3323 69.8632 43.3257 69.9125 43.2996L69.9892 43.2229C69.9892 43.1462 69.9892 40.7316 69.6442 41.2299C69.4679 41.4675 69.5446 41.9428 69.5446 42.2264ZM69.8819 52.2759C69.8791 52.2576 69.8727 52.2401 69.863 52.2244C69.8534 52.2087 69.8407 52.1951 69.8257 52.1844C69.8107 52.1736 69.7937 52.166 69.7757 52.162C69.7577 52.158 69.739 52.1576 69.7209 52.1609C69.6915 52.1642 69.6642 52.1773 69.6433 52.1982C69.6224 52.2191 69.6092 52.2465 69.6059 52.2759C69.6059 52.5978 69.3913 54.4375 69.7746 54.4759C70.2498 54.5372 69.9279 52.7128 69.8819 52.2759ZM69.8589 48.5658C69.8589 48.5332 69.846 48.502 69.823 48.479C69.8 48.456 69.7688 48.4431 69.7362 48.4431C69.7037 48.4431 69.6725 48.456 69.6495 48.479C69.6265 48.502 69.6136 48.5332 69.6136 48.5658C69.353 51.9846 70.0352 50.6354 70.0352 50.5894C70.0193 49.9118 69.9604 49.2359 69.8589 48.5658ZM69.9585 44.9706C69.9585 44.802 69.6749 44.8327 69.6442 44.9706C69.6136 45.1086 69.3913 47.5769 69.9202 46.9637C70.0482 46.3014 70.0612 45.622 69.9585 44.9553V44.9706ZM69.5599 56.6529V57.4884C69.5599 58.0403 70.2192 58.4772 69.9355 56.3999C69.8589 55.894 69.5906 55.9553 69.5599 56.6529ZM113.445 87.5295C112.275 87.2749 111.134 86.8999 110.041 86.4103C110.095 87.6215 110.156 88.7943 110.218 89.9595C112.241 89.9058 113.223 89.6298 113.445 87.5448V87.5295ZM142.045 92.1595L142.244 88.641C140.443 88.8083 138.634 88.88 136.825 88.8556C137.568 91.7992 139.101 92.0828 142.045 92.1595ZM145.372 140.038C144.827 129.26 144.544 100.109 144.881 88.3267C144.191 88.434 143.44 88.526 142.658 88.6027C142.129 106.233 141.892 122.408 143.003 140.245C143.798 140.284 144.595 140.214 145.372 140.038ZM90.3488 67.7602L56.2066 67.2236C54.8268 67.2236 53.424 67.1393 52.0366 67.2236C51.8756 67.2236 51.8986 67.4765 52.0366 67.4919C53.7307 67.6529 57.6094 67.6605 59.5181 67.6988L90.3104 68.2201C90.6094 68.2201 90.6554 67.7602 90.3488 67.7602Z" fill="black"/>
<path d="M136.702 140.153C138.617 140.317 140.54 140.353 142.459 140.261C141.692 124.439 141.401 108.61 142.022 92.7344C140.351 92.7344 137.591 92.3205 136.771 90.6111C136.482 90.0645 136.347 89.4499 136.38 88.8327C131.436 88.7024 126.791 87.7672 125.549 85.4522C125.274 85.9904 124.833 86.4258 124.292 86.694C124.292 87.5985 124.154 91.9066 124.522 92.5888C124.805 93.133 125.434 93.0564 125.947 93.1484C125.998 93.1627 126.041 93.1965 126.067 93.2425C126.093 93.2885 126.1 93.3428 126.085 93.3937C126.076 93.4262 126.058 93.4559 126.034 93.4799C126.01 93.504 125.98 93.5218 125.947 93.5316C124.522 93.7616 123.885 92.9261 123.809 91.5999C123.682 90.0438 123.682 88.4801 123.809 86.924C121.616 87.9588 117.722 88.3728 113.844 87.6139C113.844 89.9749 112.241 90.5728 110.202 90.6264C111.506 114.029 114.633 128.44 118.581 140.222C118.711 140.598 126.814 140.513 126.798 140.153C126.2 126.953 125.878 115.371 127.327 103.819L126.561 97.6863C124.491 96.7971 124.874 96.1532 125.219 96.3755L126.476 97.1421C126.76 97.2724 126.998 97.2571 126.982 97.6174C129.06 111.837 132.394 125.412 136.702 140.153ZM62.6304 61.9958C60.4319 61.9113 58.2302 61.9625 56.038 62.1491C55.5475 62.2027 55.4248 62.2564 55.4248 62.747C55.4248 63.4369 55.4248 64.8703 55.7391 64.6864C55.7851 64.8703 60.9363 64.832 62.3621 64.7554C62.753 64.7554 62.8297 64.5024 62.6074 64.4104C62.7837 64.3874 62.845 62.0878 62.6304 61.9958ZM55.7927 64.5254C55.8311 63.8386 55.8311 63.1502 55.7927 62.4634C57.9161 62.4097 60.2771 62.4634 62.3391 62.3177C62.3391 62.6014 62.2241 64.2341 62.4234 64.3874C61.6032 64.3338 55.9231 64.4641 55.7927 64.5254Z" fill="black"/>
<path d="M138.266 43.9742C138.802 46.5368 139.156 49.1343 139.324 51.747C139.454 53.6098 139.73 53.1345 136.648 53.6864C136.05 53.7937 135.46 53.9317 134.862 54.0084C135.192 54.407 137.453 57.0746 136.533 57.1665C135.292 58.8223 126.898 64.9317 124.713 66.1505C124.598 66.9171 124.514 67.63 124.468 68.3812C124.362 68.3855 124.259 68.4115 124.164 68.4577C124.069 68.5038 123.985 68.5691 123.916 68.6495C123.924 67.7506 124.001 66.8536 124.146 65.9665C120.543 63.4139 117.117 57.6571 116.565 56.216C116.304 55.5415 117.676 54.6139 118.098 54.2C117.178 53.4334 114.817 52.4216 114.932 52.046C115.756 49.5965 116.876 47.2566 118.267 45.078C117.4 45.6074 116.552 46.1647 115.722 46.7491C115.4 34.4077 115.407 21.6829 114.664 9.39515H116.649C116.994 9.39515 116.971 8.50595 116.649 8.50595H114.579C109.834 7.66274 105.09 6.8272 100.368 5.84602C93.0164 4.31292 85.5348 2.44254 78.1913 1.07041V0.158218C78.1913 -0.0410846 77.3787 -0.0640811 77.3787 0.158218V1.00909C66.946 3.72268 56.3829 5.99166 45.8812 8.31431C44.5381 8.53868 43.2076 8.83293 41.8951 9.19584L39.3425 9.2495C39.0589 9.2495 39.0666 10.0161 39.3425 10.0161H41.9948C41.6115 30.5443 41.5732 51.0571 41.4122 71.57C41.4122 72.0146 41.2129 75.4948 41.6039 75.4948C46.0192 75.5867 77.0644 75.4948 77.0644 75.4948C77.0644 95.7623 77.0389 116.032 76.9878 136.305C70.7404 139.609 62.1551 144.216 60.7216 145.067C60.461 145.136 38.3154 145.067 35.4715 145.136C35.3028 145.136 35.3028 145.458 35.4715 145.458C39.1892 145.588 149.787 145.642 149.787 145.642C150.094 145.642 150.155 145.128 149.848 145.128H144.774C144.603 143.655 144.308 142.198 143.892 140.774C142.146 140.95 140.387 140.95 138.641 140.774C137.423 141.211 132.609 143.074 132.417 145.105H126.952C126.821 143.684 126.549 142.279 126.139 140.912C124.259 141.347 122.31 141.391 120.413 141.042C119.593 141.334 114.917 143.028 114.572 145.12H95.5076C95.0477 144.661 78.6052 136.635 78.3293 136.543V75.5177H109.037C108.761 79.3505 108.646 85.3602 108.823 85.4369C116.726 88.8021 124.33 87.4529 125.296 84.9157C123.441 82.363 123.586 75.5944 123.602 74.3219C123.749 74.5571 123.921 74.7755 124.115 74.9735C124.016 77.2732 124.016 84.3714 127.112 86.4181C130.393 88.5951 141.094 88.8021 145.732 87.6292C145.778 85.4369 145.671 82.6007 145.571 81.1212C141.493 80.797 137.446 80.1563 133.467 79.2049C133.046 79.1129 130.14 78.5763 130.094 78.2313C130.048 77.8864 129.995 77.4188 129.964 77.0049L128.431 76.6599C128.425 74.7107 128.62 72.7661 129.014 70.8571L130.194 70.8111C130.255 70.4125 130.194 69.6843 130.662 69.6843C131.79 69.3118 132.943 69.0148 134.111 68.7951C136.068 68.3812 138.02 67.9851 139.968 67.607C139.463 65.5426 139.13 63.4403 138.971 61.3212C138.971 61.076 139.324 61.0146 139.347 61.2599C139.598 63.3693 139.992 65.4591 140.527 67.515C142.764 67.0478 145.027 66.7176 147.303 66.5261C147.343 66.5345 147.378 66.5562 147.404 66.5876C147.429 66.619 147.443 66.6582 147.443 66.6986C147.443 66.739 147.429 66.7782 147.404 66.8096C147.378 66.841 147.343 66.8627 147.303 66.8711C141.83 67.308 136.188 68.7951 130.823 70.0676C130.354 72.6846 130.218 75.3502 130.416 78.0014C133.834 78.8987 137.299 79.6025 140.795 80.1094C146.499 80.807 154.938 82.1944 156.126 74.3219C158.012 62.586 148.775 48.7422 138.266 43.9742ZM76.9878 145.082H62.9216C67.5899 142.53 72.3118 140.238 77.0261 137.585L76.9878 145.082ZM112.027 8.49062L78.2986 8.83556C78.2986 6.34428 78.2449 4.23626 78.1989 1.72965C89.1223 4.23626 100.942 6.53591 112.027 8.49062ZM77.3557 1.7833C77.3097 4.26693 77.2637 6.3826 77.2331 8.85089C65.9111 8.95821 55.2638 8.98887 43.9418 9.19584C55.3251 6.97285 77.3557 1.7833 77.3557 1.7833ZM93.2693 145.128H78.2526V137.662C82.7063 140.215 88.5474 142.959 93.2693 145.09V145.128ZM114.142 54.1387C111.076 60.5164 109.627 67.9979 109.068 75.0578C86.838 75.0578 64.1787 74.5212 42.0101 75.0042C42.1404 73.3408 41.8951 70.5965 41.9105 68.8104C42.0638 49.2021 42.7153 29.7164 42.6387 10.0774C51.7453 10.0774 114.004 9.41814 114.004 9.41814C114.426 21.039 115.246 46.5422 115.3 47.0941C110.946 50.2077 107.03 53.892 103.656 58.0481C105.106 58.3109 106.537 58.6668 107.941 59.1136C107.988 59.1339 108.025 59.1715 108.045 59.2186C108.065 59.2657 108.066 59.3187 108.048 59.3665C108.031 59.4092 107.999 59.4442 107.959 59.4653C107.918 59.4864 107.871 59.4922 107.826 59.4815C104.921 58.7916 94.2888 56.538 89.4289 57.0669C89.3139 57.0669 89.3369 57.2662 89.3752 57.5038C88.9214 57.411 88.4557 57.3903 87.9954 57.4425C86.654 55.6334 85.2359 53.6098 82.9132 55.1429C81.8784 53.1958 73.0017 36.2167 72.6568 36.1861C72.2275 35.5575 71.7293 36.1861 72.0129 36.715L81.9397 56.7219C81.1732 57.3812 81.0582 58.4007 81.7097 58.6153C81.3111 59.4432 81.8631 60.4244 82.139 60.3094C81.8401 61.8425 84.1167 63.2606 85.1362 63.069C85.2742 63.3296 85.9028 64.6711 86.1711 64.6557C86.3187 64.7715 86.5019 64.8326 86.6895 64.8286C86.8771 64.8246 87.0575 64.7559 87.2002 64.634C87.3428 64.5121 87.4389 64.3446 87.4721 64.16C87.5052 63.9753 87.4735 63.7848 87.3822 63.6209L88.0261 63.9658C87.8421 64.2725 87.7348 64.4334 87.7885 64.4948C90.9543 68.1895 98.8191 72.7658 101.832 73.2334C104.269 73.609 107.136 73.6857 108.57 73.2794C109.229 66.9707 110.739 59.5582 113.782 53.9164C113.794 53.8926 113.81 53.8713 113.829 53.8538C113.849 53.8363 113.872 53.8229 113.897 53.8143C113.922 53.8058 113.948 53.8022 113.975 53.804C114.001 53.8057 114.027 53.8126 114.05 53.8244C114.075 53.8358 114.097 53.8521 114.116 53.8724C114.134 53.8927 114.148 53.9166 114.156 53.9424C114.165 53.9683 114.168 53.9957 114.166 54.0228C114.163 54.05 114.155 54.0764 114.142 54.1003V54.1387ZM85.3815 58.9143C85.3324 58.8213 85.2599 58.7427 85.1712 58.6863C85.0825 58.6298 84.9806 58.5975 84.8756 58.5923C84.9613 58.5385 85.0345 58.4668 85.09 58.3821C85.1456 58.2975 85.1822 58.2018 85.1975 58.1017C85.4888 58.416 85.5732 58.2091 85.4888 58.1017C85.0902 57.5268 84.7223 55.9324 84.4003 56.078C84.1014 55.9707 83.1815 56.2773 82.6756 56.2314C82.4763 56.2314 82.323 56.101 82.4763 55.8864C83.0552 55.2554 83.853 54.8689 84.7069 54.8056C85.8414 55.0049 87.2442 56.9059 87.8421 57.7645C88.509 59.5428 87.3822 62.2641 86.9223 62.7164L85.3049 59.5658C85.3764 59.4748 85.4214 59.3658 85.4349 59.2509C85.4485 59.1359 85.43 59.0194 85.3815 58.9143ZM82.1313 56.1854L72.2199 36.393C72.2199 35.9331 72.5495 36.3317 72.6951 36.5693C73.5536 38.2941 82.6603 55.3498 82.6603 55.3498C82.5111 55.436 82.3851 55.557 82.293 55.7025C82.2009 55.848 82.1454 56.0137 82.1313 56.1854ZM82.3843 56.8293C82.8366 56.5916 84.132 56.2007 84.454 56.7833C84.4923 56.9672 84.5306 57.1436 84.5613 57.3275C84.0539 57.234 83.5304 57.2851 83.0506 57.4748C82.5707 57.6646 82.1539 57.9854 81.8477 58.4007C81.3801 57.8641 81.8401 57.0976 82.3843 56.8293ZM81.9244 58.8913C82.208 58.1247 83.8484 57.2202 84.592 57.6725C85.3355 58.1247 84.385 58.439 84.247 58.6307C83.7952 58.6613 83.362 58.8224 83 59.0946C82.638 59.3668 82.3629 59.7382 82.208 60.1638C82.0443 60.0008 81.9306 59.7944 81.8804 59.5689C81.8301 59.3435 81.8454 59.1084 81.9244 58.8913ZM83.6185 59.0983C83.9404 58.9756 85.5578 58.5847 85.0212 59.4432C84.2547 59.5122 83.6031 60.0948 83.9864 60.846C84.3083 61.4746 84.638 62.1031 84.9752 62.724C82.8059 62.4864 81.2038 59.9951 83.6185 59.0983ZM84.155 60.2634C84.2322 60.119 84.3415 59.9942 84.4743 59.8986C84.6072 59.8029 84.7602 59.7389 84.9216 59.7115C85.2052 60.2634 87.1293 63.8432 87.1293 64.1268C87.1293 64.4104 86.5007 64.6481 86.3627 64.3874C85.5859 63.0332 84.8449 61.6585 84.1397 60.2634H84.155ZM87.0449 62.9157C88.2331 62.0418 88.578 59.3359 88.2331 57.6955L89.4979 57.8794C89.6795 59.8945 89.2323 61.9164 88.2177 63.6669C87.9725 63.5136 87.1446 63.1456 87.0296 62.9157H87.0449ZM128.201 75.7401C127.166 75.6787 126.124 75.8934 125.004 75.2341C124.177 74.7435 123.326 73.701 123.602 72.7275C123.908 73.1414 124.062 72.7812 123.947 72.6509C123.737 72.4225 123.594 72.1409 123.533 71.8368C123.472 71.5326 123.496 71.2176 123.602 70.9261C123.855 71.4397 124.1 71.1407 124.008 70.9798C123.632 70.2822 123.548 69.0327 124.445 68.6801C124.376 70.4432 126.308 70.6962 126.17 70.2132C126.17 70.2132 125.403 66.8634 126.269 67.032C126.691 68.1665 127.266 70.6425 128.569 70.9874C128.272 72.5534 128.144 74.1467 128.186 75.7401H128.201Z" fill="black"/>
<path d="M50.9174 66.25C56.8045 57.818 64.3243 44.9783 69.2456 36.0633C69.4314 36.1781 69.6457 36.2384 69.864 36.2374C70.0824 36.2363 70.2961 36.1738 70.4807 36.0571C70.6653 35.9405 70.8134 35.7742 70.9081 35.5774C71.0028 35.3807 71.0403 35.1612 71.0163 34.9441C76.9801 36.4772 83.1968 37.3741 89.2219 38.7156C89.3369 40.3177 91.5905 39.7044 91.2456 38.3936C96.2435 33.3497 101.625 27.9839 106.508 22.986L106.692 23.0626C106.979 23.1576 107.293 23.1352 107.564 23.0003C107.835 22.8654 108.042 22.6288 108.14 22.3421C108.24 22.0729 108.233 21.7756 108.12 21.5118C108.006 21.2479 107.796 21.0377 107.532 20.9245C107.268 20.8113 106.971 20.8038 106.702 20.9035C106.433 21.0033 106.212 21.2027 106.086 21.4605C105.977 21.6652 105.932 21.8974 105.955 22.128C105.978 22.3586 106.069 22.5771 106.216 22.756C101.28 27.7616 95.7912 32.9128 91.1076 38.087C90.9838 37.917 90.8134 37.7866 90.617 37.7114C90.3546 37.6166 90.0655 37.6286 89.8118 37.7447C89.5581 37.8608 89.36 38.0718 89.2602 38.3323C86.194 37.7114 72.3961 34.6912 70.955 34.6375C70.3954 32.9818 67.7891 34.4152 68.916 35.795C63.1439 46.2661 56.9655 55.9553 50.6568 66.0737C50.4063 65.9531 50.1225 65.9201 49.851 65.9798C49.5795 66.0396 49.3359 66.1888 49.1592 66.4035C48.9825 66.6181 48.883 66.8859 48.8766 67.1638C48.8701 67.4418 48.9571 67.7138 49.1237 67.9365C50.1432 69.3852 52.2972 67.4995 50.9174 66.25ZM107.014 15.7651C106.73 15.8034 106.83 16.1943 106.845 16.386C107.167 19.6208 107.703 15.6961 107.014 15.7651Z" fill="black"/>
<path d="M90.3564 30.5902C89.8888 30.5442 90.2031 32.3686 90.2491 32.7978C90.2519 32.8161 90.2583 32.8336 90.268 32.8493C90.2776 32.865 90.2903 32.8786 90.3053 32.8893C90.3203 32.9 90.3373 32.9077 90.3553 32.9117C90.3733 32.9157 90.392 32.9161 90.4101 32.9128C90.4395 32.9095 90.4668 32.8964 90.4877 32.8755C90.5086 32.8546 90.5218 32.8272 90.5251 32.7978C90.5174 32.4682 90.7397 30.6592 90.3564 30.5902ZM90.5174 36.5386C90.778 33.1275 90.0958 34.4689 90.0958 34.5149C90.1123 35.1899 90.1712 35.8633 90.2721 36.5309C90.2711 36.5635 90.2831 36.5951 90.3053 36.6188C90.3276 36.6425 90.3584 36.6564 90.3909 36.6574C90.4235 36.6584 90.4551 36.6465 90.4788 36.6242C90.5025 36.6019 90.5164 36.5711 90.5174 36.5386ZM90.2798 23.3539C89.9962 23.3923 90.0958 23.7832 90.1188 23.9749C90.4638 27.2097 90.9697 23.285 90.2798 23.3539ZM106.868 18.816C106.669 20.694 107.382 20.8627 107.29 19.4752C107.29 19.1763 107.198 18.8773 107.159 18.5783C107.159 18.448 106.914 18.3407 106.868 18.816ZM99.3864 19.7358C100.812 19.8815 103.863 19.7895 104.047 19.7818C105.197 19.7818 105.082 19.7818 104.998 18.678C104.998 18.0954 104.921 17.4592 104.653 17.5358L98.8958 17.4132C98.4435 17.2905 98.6122 18.0418 98.6352 18.5247C98.6812 19.3985 98.3746 19.6285 99.3864 19.7358ZM99.0108 17.7351L104.63 17.9038L104.676 19.3756H99.0031L99.0108 17.7351ZM90.2031 17.8731C90.2138 17.9074 90.2373 17.9361 90.2688 17.9533C90.3003 17.9704 90.3372 17.9747 90.3718 17.9651C90.3943 17.9584 90.415 17.9467 90.4323 17.9307C90.4496 17.9148 90.463 17.8951 90.4714 17.8731C90.5886 17.2073 90.6041 16.5276 90.5174 15.8571C90.5076 15.8338 90.493 15.8129 90.4747 15.7955C90.4564 15.7781 90.4347 15.7647 90.4109 15.7561C90.3872 15.7475 90.362 15.7438 90.3368 15.7454C90.3116 15.7469 90.2869 15.7536 90.2645 15.7651C90.2366 15.7793 90.2129 15.8005 90.1955 15.8264C90.0841 16.4964 90.0841 17.1802 90.1955 17.8501L90.2031 17.8731ZM90.3488 19.6132C89.9732 19.6132 90.1188 20.3414 90.1341 20.5484C90.2721 23.3616 91.0693 19.6285 90.3488 19.6132ZM59.6561 33.7714C59.6561 33.8863 59.8631 33.9017 60.1774 33.9017C61.5188 33.9017 66.3634 34.2849 66.4477 33.7484C66.7237 33.7484 66.6241 32.085 66.5857 31.763C66.9307 30.9428 60.3767 31.5484 59.9014 31.51C59.6868 31.4487 59.5871 31.6863 59.6255 32.039C59.6868 32.6369 59.6255 33.4954 59.6561 33.7714ZM59.9857 31.8397C62.0554 31.8397 64.2554 31.8933 66.3174 31.8397V33.6104C64.1558 33.6947 62.0631 33.6104 59.9551 33.6717C59.9963 33.0619 60.0065 32.4505 59.9857 31.8397ZM49.6986 18.0264C49.5836 24.0285 49.6296 55.4111 49.645 65.1003C49.645 65.4069 50.1279 65.4452 50.1279 65.1003C50.1279 58.8759 50.1969 27.4627 49.9976 17.9804C50.2275 17.9804 51.0324 17.9421 51.1934 17.6815C51.3544 17.4209 50.2276 14.439 50.0589 13.9944C49.9976 13.8411 49.7983 13.9484 49.7676 14.0557C49.3997 15.2745 49.0011 16.4703 48.6791 17.7045C48.5871 18.0801 49.461 18.0341 49.6986 18.0264ZM90.5711 28.3595V27.5163C90.5711 26.9721 89.9118 26.5275 90.1955 28.6125C90.2721 29.1261 90.5174 29.1261 90.5711 28.3595ZM69.5599 32.5066C69.6059 32.8208 70.0505 32.7902 70.0275 32.2229C69.9585 30.4292 69.5523 30.3985 69.5446 31.2954C69.514 31.6985 69.514 32.1034 69.5446 32.5066H69.5599ZM69.8206 18.1491C70.2422 18.1107 69.9126 16.202 69.8206 15.8494C69.8206 15.7191 69.5829 15.6884 69.5753 15.8494C69.5753 16.5393 69.5599 17.2292 69.5293 17.9191C69.528 17.9552 69.5352 17.9912 69.5504 18.024C69.5655 18.0568 69.5882 18.0856 69.6166 18.108C69.645 18.1304 69.6782 18.1458 69.7137 18.1529C69.7491 18.1601 69.7857 18.1587 69.8206 18.1491ZM69.5523 23.9902V24.8487C69.5523 25.393 70.2115 25.8222 69.9279 23.7526C69.8206 23.2236 69.5829 23.2696 69.5523 23.9902ZM69.7669 21.8055C70.2422 21.8515 69.9202 20.0271 69.8742 19.5902C69.8742 19.5536 69.8597 19.5185 69.8338 19.4926C69.8079 19.4667 69.7728 19.4522 69.7362 19.4522C69.6997 19.4522 69.6646 19.4667 69.6387 19.4926C69.6128 19.5185 69.5983 19.5536 69.5983 19.5902C69.5983 19.9275 69.3836 21.7672 69.7669 21.8055Z" fill="black"/>
</svg>
