<svg width="32" height="32" viewBox="0 0 32 32" fill="none" xmlns="http://www.w3.org/2000/svg">
<path d="M21.7169 20.204C21.7169 21.292 21.5995 22.3053 21.3649 23.244C21.1302 24.1827 20.7142 25.004 20.1169 25.708C19.5409 26.412 18.7515 26.9667 17.7489 27.372C16.7675 27.7773 15.5195 27.98 14.0049 27.98C12.5969 27.98 11.3702 27.788 10.3249 27.404C9.30088 26.9987 8.51154 26.572 7.95688 26.124L9.39688 22.956C9.93021 23.3187 10.5809 23.6707 11.3489 24.012C12.1382 24.332 12.9382 24.492 13.7489 24.492C15.1142 24.492 16.1062 24.1507 16.7249 23.468C17.3435 22.7853 17.6529 21.612 17.6529 19.948V5.324H21.7169V20.204Z" fill="#7163BA"/>
</svg>
