<svg width="157" height="156" viewBox="0 0 157 156" fill="none" xmlns="http://www.w3.org/2000/svg">
<path d="M144.485 133.338C141.898 139.659 121.142 138.93 83.2622 123.43C82.1828 122.989 73.6546 119.049 65.1691 115.129C56.7546 111.242 48.3819 107.375 47.3559 106.956L26.3745 100.029C-7.66915 86.145 8.92107 91.2816 7.3079 77.2067C9.89453 70.8853 69.6582 82.2307 80.5797 93.8263C85.7148 99.2782 100.72 106.941 114.91 114.187C130.9 122.352 145.855 129.988 144.485 133.338Z" fill="#826DC7"/>
<path d="M40.9474 65.1591C36.9094 68.3328 37.0373 60.5873 38.9284 61.2656C39.3578 61.4226 40.9262 62.9925 41.2363 61.9862C41.3713 61.5505 40.2268 56.6483 39.7943 55.6403C42.8981 53.2535 45.2101 49.9863 46.4283 46.2652C46.4283 45.8327 45.2751 46.4097 45.2751 46.4097C45.5107 45.8141 45.6092 45.1731 45.5632 44.5343C45.538 44.5008 45.5053 44.4737 45.4678 44.455C45.4303 44.4363 45.3889 44.4265 45.347 44.4265C45.305 44.4265 45.2637 44.4363 45.2261 44.455C45.1886 44.4737 45.1559 44.5008 45.1307 44.5343C44.4093 45.9771 42.6791 46.2613 41.2363 46.4097C39.5093 46.4097 33.4475 45.5462 31.2841 46.5541C30.2746 46.9866 29.1206 48.4286 29.5571 51.0285C29.5571 51.3174 29.9896 53.0483 30.2777 53.192C31.394 53.1877 32.4905 53.4862 33.4507 54.0555C33.5951 54.1991 33.4507 54.3435 33.307 54.3435C32.7301 54.3435 32.2967 54.1991 31.8642 54.1991C29.8452 54.0555 26.9603 54.0555 26.6722 56.6514C26.3833 58.6704 27.1047 60.6902 27.8262 62.4211C28.6897 64.5837 33.4507 71.6518 34.0277 71.9399C34.2297 71.9439 34.4311 71.9158 34.6243 71.8567C34.7742 73.3748 35.0497 74.8867 35.326 76.2667C35.4697 77.1302 36.3356 77.2762 36.1895 76.2667C35.779 74.7611 35.498 73.2555 35.1008 71.7499C37.1551 71.2695 41.5079 70.0402 42.3918 69.4883C42.6791 69.3423 41.3776 64.7266 40.9474 65.1591ZM42.5347 48.5731C42.6091 48.579 42.679 48.6113 42.7318 48.6641C42.7846 48.7169 42.8169 48.7867 42.8228 48.8612C42.8228 49.7506 40.0486 50.2742 39.9379 50.304C39.7943 50.304 39.6498 50.0151 39.7943 50.0151C39.9544 49.8542 42.1391 48.4412 42.5347 48.5731V48.5731ZM35.1761 66.4575C35.1765 66.4766 35.1731 66.4956 35.166 66.5133C35.1589 66.531 35.1483 66.5471 35.1348 66.5606C35.1213 66.5741 35.1052 66.5847 35.0875 66.5918C35.0697 66.5989 35.0508 66.6024 35.0317 66.6019C34.5991 66.7464 34.1682 66.3131 34.0222 66.025C33.7132 65.6566 33.4249 65.2713 33.1587 64.871C33.2235 66.0232 33.5171 67.1508 34.0222 68.1884C34.0622 68.2846 34.0698 68.3912 34.044 68.4921C34.0181 68.593 33.9602 68.6828 33.8788 68.7479C33.7975 68.813 33.6972 68.8499 33.5931 68.8531C33.489 68.8562 33.3866 68.8254 33.3015 68.7654C32.3213 67.7358 31.4953 66.5698 30.8492 65.3036C30.1568 63.9903 29.4071 62.7076 29.5516 61.1211C29.5516 60.9767 29.8397 60.8323 29.8397 61.1211C30.177 62.4677 30.7627 63.7394 31.5667 64.871C31.8539 65.4317 32.1952 65.9631 32.5856 66.4575C32.3182 65.5195 32.2687 64.5327 32.4412 63.5727C32.4446 63.4878 32.4765 63.4066 32.5316 63.3421C32.5868 63.2776 32.6621 63.2335 32.7453 63.2169C32.8286 63.2003 32.915 63.2122 32.9907 63.2507C33.0664 63.2892 33.1269 63.352 33.1626 63.429C33.8157 64.7423 35.3669 65.7039 35.1761 66.4575ZM32.1499 48.2842C32.0008 48.3549 31.8768 48.263 32.0055 48.1406C32.5407 47.6968 33.1671 47.3763 33.8402 47.2018C34.5132 47.0273 35.2164 47.0032 35.8999 47.1311C37.0453 47.3091 38.2019 47.4054 39.361 47.4192C39.4395 47.4192 41.493 47.1625 40.6593 47.9961C39.6812 48.7293 37.4903 48.3721 36.3324 48.1406C34.9588 47.74 33.4929 47.7904 32.1499 48.2842V48.2842Z" fill="#191919"/>
<path d="M48.5923 61.986C48.9587 61.6923 49.253 61.3187 49.4528 60.8938C49.6527 60.4689 49.7528 60.004 49.7455 59.5345C49.7455 57.5956 48.1755 56.3843 46.8614 54.7743C46.1486 53.9022 45.2749 53.1879 44.4091 52.3228C44.2646 52.1784 43.9765 52.3228 44.121 52.6109C44.698 53.3323 45.2749 54.1981 45.848 54.9188C47.5452 57.0382 48.517 58.0587 48.7321 59.2456C48.7408 60.0059 48.5412 60.7541 48.1551 61.409C48.1192 61.1921 48.0188 60.9911 47.867 60.8321C47.7226 60.6884 47.5302 60.6986 47.5781 60.9765C47.9557 63.1501 48.4416 65.5922 47.7226 67.8993C47.5124 68.7008 47.1171 69.4418 46.5686 70.0628C45.9916 70.7842 45.1266 71.073 44.4052 71.65C44.2607 71.7937 44.2607 72.0825 44.5496 72.0825C45.5591 72.2262 46.4242 71.5056 47.1456 70.9286C47.8594 70.1899 48.4023 69.3034 48.736 68.3319C49.3393 66.2518 49.2891 64.0366 48.5923 61.986V61.986Z" fill="#191919"/>
<path d="M72.5342 76.9861C74.9497 76.2953 76.4388 75.3219 81.1881 72.9473C83.0014 72.3429 83.8641 71.9841 84.6491 70.3513C91.3028 56.5049 92.1412 47.4438 92.8728 45.2529C93.0392 44.3987 93.135 43.5323 93.1593 42.6624C93.1593 42.2291 92.5823 42.2291 92.4379 42.518C92.0673 44.0399 91.7791 45.5807 91.5744 47.1337C90.2127 53.8574 88.1833 60.4284 85.5165 66.749C84.81 68.3425 84.3626 70.6426 82.7761 71.5084C81.1918 72.3804 79.5539 73.1512 77.8722 73.8163C76.1256 74.6491 74.4104 75.6908 72.5342 76.5567C72.1009 76.6972 72.2453 76.9861 72.5342 76.9861Z" fill="#191919"/>
<path d="M92.1511 40.3508C91.2876 39.6294 90.4115 39.0642 89.4106 38.3318C88.8332 38.0201 88.3385 37.575 87.9678 37.0335C87.79 36.7006 87.6969 36.3291 87.6969 35.9517C87.6969 35.5744 87.79 35.2029 87.9678 34.87C88.2435 34.0755 88.581 33.3039 88.9773 32.5622C89.2662 31.8415 89.6987 31.1201 89.9876 30.3987C90.1313 30.1106 89.6987 29.8218 89.4106 30.1106C88.8944 30.7783 88.4586 31.5044 88.1122 32.2741C87.5353 33.5717 86.6396 35.162 86.8139 36.6009C86.9191 37.0871 87.1278 37.5449 87.4258 37.9431C87.7238 38.3414 88.1041 38.6707 88.5409 38.9088C89.5614 39.6153 90.7043 40.3508 91.7138 40.9278C92.1511 40.9278 92.4392 40.6389 92.1511 40.3508Z" fill="#191919"/>
<path d="M90.8535 33.1401C91.3284 30.5284 91.4453 27.5714 91.717 25.9284C91.8614 25.0649 91.8614 24.2014 92.0058 23.3324C92.1503 22.7555 92.2939 23.4769 92.4384 23.6213C92.5828 24.1983 92.8662 24.776 93.0153 25.4959C93.4345 27.518 93.5923 29.6791 93.8788 31.6973C93.8882 31.7865 93.9302 31.869 93.9968 31.929C94.0634 31.9891 94.1499 32.0223 94.2395 32.0223C94.3292 32.0223 94.4157 31.9891 94.4823 31.929C94.5489 31.869 94.5909 31.7865 94.6003 31.6973C94.7017 28.6983 94.2117 25.7088 93.1582 22.8991C93.1102 22.6633 92.9848 22.4503 92.8019 22.2939C92.619 22.1374 92.3891 22.0465 92.1487 22.0356C91.1392 22.0356 91.2852 23.7626 91.1392 24.3427C90.8471 27.17 90.7025 30.0105 90.7059 32.8528C90.4209 33.2845 90.709 33.2845 90.8535 33.1401Z" fill="#191919"/>
<path d="M98.4968 28.6685C99.062 29.1627 99.4643 29.8165 99.6508 30.5438C99.7952 31.2577 99.7952 31.9933 99.6508 32.7072C99.5787 32.8137 99.5402 32.9394 99.5402 33.0679C99.5402 33.1965 99.5787 33.3221 99.6508 33.4286C99.7952 33.5723 99.9389 33.4286 100.083 33.2842C100.649 32.719 100.57 31.1938 100.372 30.3994C100.254 29.9366 100.038 29.5043 99.7397 29.1313C99.4413 28.7582 99.0668 28.453 98.6413 28.2359C98.4356 28.1629 98.3524 28.5248 98.4968 28.6685Z" fill="#191919"/>
<path d="M101.815 39.6302C102.294 38.6234 102.634 37.5559 102.825 36.4573C103.087 34.5788 103.113 32.1305 101.815 30.544C101.671 30.2551 101.238 30.544 101.383 30.8321C102.102 32.5675 102.253 34.4861 101.815 36.3129C101.526 38.0399 100.481 39.4701 99.7961 41.073C99.4907 41.7874 100.522 49.726 100.806 53.7648C101.099 57.9472 101.094 62.1304 101.094 66.3128C101.094 70.3516 100.81 74.3903 100.517 78.5728C100.402 80.5753 100.063 82.5588 99.5072 84.4861C99.0197 85.923 98.1763 87.213 97.0556 88.236C95.6387 89.6877 94.0385 90.9483 92.2954 91.9859C91.289 92.5675 90.4208 93.1398 89.4113 93.7128C88.397 94.253 87.4317 94.8805 86.5264 95.5882C86.2375 95.7318 86.5264 96.1652 86.8145 96.0207C88.7571 95.3595 90.6009 94.4377 92.2954 93.2803C93.8787 92.3041 95.3757 91.1943 96.7699 89.963C97.9622 88.9271 98.9844 87.7105 99.7992 86.3575C100.63 84.6411 101.12 82.7797 101.241 80.8767C102.818 69.441 102.157 53.1933 100.378 41.7897C101.094 41.5056 101.671 40.0628 101.815 39.6302Z" fill="#191919"/>
<path d="M7.48611 118.525C7.28201 121.587 5.61624 129.233 4.89012 132.226C4.24171 134.899 4.1687 134.742 4.1687 135.4C4.1687 135.688 4.4568 135.833 4.74568 135.544C5.2724 134.765 5.6174 133.878 5.75519 132.948C6.17516 131.036 8.06309 121.54 8.06309 118.525C7.91865 118.092 7.48611 118.092 7.48611 118.525Z" fill="#191919"/>
<path d="M94.8909 27.6591C95.179 28.0916 95.6115 28.3805 95.7544 28.813C96.166 29.7175 96.3634 30.7047 96.3314 31.6978C96.3314 32.7003 97.4594 31.7763 97.0528 29.9709C96.9078 29.2453 96.6138 28.5578 96.1893 27.9519C95.8695 27.5862 95.4763 27.292 95.0353 27.0884C94.8909 27.2265 94.7464 27.5123 94.8909 27.6591Z" fill="#191919"/>
<path d="M57.1021 109.583C56.8133 109.727 56.6672 109.291 56.9577 109.15C59.1078 108.111 85.9485 98.333 86.2382 98.1886C85.085 95.1593 76.4304 72.6599 76.1423 71.506C76.1164 71.4377 76.0767 71.3755 76.0255 71.3233C75.9743 71.2712 75.9129 71.2302 75.8451 71.2031C75.7772 71.1759 75.7045 71.1632 75.6315 71.1656C75.5585 71.168 75.4868 71.1855 75.4209 71.2171C72.2479 73.3806 53.0649 80.1597 52.6324 80.3042C47.8713 75.2559 33.4493 74.5337 27.3899 77.2749C27.2969 77.3026 27.2154 77.3597 27.1575 77.4374C27.0995 77.5152 27.0682 77.6096 27.0682 77.7066C27.0682 77.8036 27.0995 77.898 27.1575 77.9758C27.2154 78.0536 27.2969 78.1106 27.3899 78.1384C28.8217 78.5811 29.792 80.5397 29.9867 80.7343C24.7939 82.4613 19.9881 85.3147 16.7202 89.6761C12.511 95.2904 12.0887 98.9186 5.47034 120.253C5.46064 120.331 5.4685 120.411 5.49335 120.486C5.51819 120.561 5.5594 120.629 5.61399 120.686C8.78775 121.263 12.1044 121.407 15.2781 121.984C15.0269 114.962 15.1525 107.012 17.0051 100.205C17.7547 97.0834 18.919 94.0761 20.467 91.2634C20.6114 91.119 20.8995 91.2634 20.7559 91.407C19.9175 93.1041 19.2878 94.8965 18.8805 96.745C15.4226 107.118 16.633 121.86 16.8615 132.802C16.8944 134.388 17.0051 135.976 17.1496 137.562C18.7366 138.057 20.3912 138.3 22.0535 138.283C23.4963 138.283 32.8676 137.666 36.1882 137.419C43.1056 136.903 63.5925 135.977 67.0544 136.265C67.1667 136.258 67.2726 136.21 67.3522 136.131C67.4318 136.051 67.4797 135.945 67.4869 135.833C67.5591 132.08 69.0734 108.141 69.0734 106.553C65.0227 107.308 61.0242 108.32 57.1021 109.583V109.583ZM46.7158 95.3037C47.2566 98.3074 48.3318 101.19 49.8903 103.814C49.9469 103.863 49.9894 103.926 50.0136 103.996C50.0378 104.067 50.0428 104.143 50.0281 104.216C50.0135 104.289 49.9796 104.358 49.93 104.413C49.8804 104.469 49.8169 104.511 49.7459 104.534C49.4578 104.534 49.1689 103.957 49.0253 103.814C48.4483 102.95 47.8713 101.938 47.2944 100.929C46.4261 98.8542 45.8451 96.6706 45.5674 94.4387C45.0367 90.2068 46.5094 86.0016 48.1633 84.0541C48.2952 83.8971 50.1832 82.1787 50.0387 82.7557C49.8943 83.1882 49.304 83.6082 49.0292 83.9096C48.3332 84.7693 47.7959 85.7462 47.4427 86.7945C46.4584 89.5181 46.2077 92.4526 46.7158 95.3037V95.3037ZM42.2413 80.1597C43.17 80.2402 44.0396 80.6494 44.6936 81.3137C44.7208 81.3495 44.7387 81.3913 44.746 81.4357C44.7533 81.48 44.7497 81.5254 44.7355 81.568C44.7212 81.6106 44.6968 81.6491 44.6644 81.6801C44.6319 81.7112 44.5924 81.7339 44.5492 81.7462C42.3583 81.7462 42.5985 80.5923 33.443 80.5923C33.1549 80.5923 33.2994 80.3042 33.443 80.3042C35.4542 80.1495 40.1783 79.8151 42.246 80.1597H42.2413Z" fill="black"/>
<path d="M104.842 17.8512C101.631 17.8512 83.9983 17.5482 81.1888 17.8512C79.6046 18.0223 77.8713 18.2838 76.7143 19.5782C76.0754 20.2499 75.6706 21.1101 75.5603 22.0305C75.4096 23.9023 75.4096 25.7832 75.5603 27.6549C75.6938 29.243 75.6859 30.8467 77.0023 32.1294C79.5638 34.6178 83.9237 33.3555 87.099 33.4278C87.1565 33.4278 87.2116 33.4049 87.2522 33.3643C87.2929 33.3237 87.3157 33.2686 87.3157 33.2111C87.3157 33.1536 87.2929 33.0985 87.2522 33.0579C87.2116 33.0173 87.1565 32.9944 87.099 32.9944C85.8006 32.9944 84.3586 32.8508 83.0602 32.8508C80.5152 32.8508 78.1241 32.7856 77.0023 30.5429C76.2817 29.1009 76.4254 27.2256 76.4254 25.6391C76.4254 24.1971 76.2817 22.1773 77.0023 20.8797C77.723 19.5821 79.3134 19.035 80.7531 18.8599C82.7166 18.645 84.6913 18.5488 86.6665 18.5718C108.534 18.5718 109.896 18.5083 110.465 18.5718C111.188 18.6985 111.88 18.9678 112.499 19.364C113.118 19.7602 113.652 20.2754 114.07 20.8797C114.912 22.3142 115.217 24.0004 114.934 25.6391C114.898 25.8526 114.734 29.1825 113.924 30.5429C112.672 32.6443 107.971 32.7111 106.859 32.8508H104.262C104.119 32.8508 103.542 32.8508 103.685 33.1389H103.83C105.989 33.3371 108.161 33.3371 110.32 33.1389C111.763 32.9944 113.205 32.7064 114.07 31.5524C114.934 30.5429 115.06 29.2422 115.224 27.947C115.384 26.9443 115.48 25.9325 115.513 24.9177C115.585 24.0057 115.585 23.0893 115.513 22.1773C115.325 21.3834 114.971 20.6385 114.474 19.9919C113.977 19.3454 113.347 18.8121 112.628 18.4274C111.939 18.082 109.657 17.8512 104.842 17.8512Z" fill="#191919"/>
<path d="M129.362 63.4284C132.527 63.7285 135.71 63.7766 138.882 63.572C140.06 63.5787 141.231 63.3836 142.344 62.9951C142.927 62.7557 143.456 62.403 143.902 61.9573C144.348 61.5117 144.7 60.9821 144.94 60.3991C145.173 59.6532 145.271 58.8716 145.228 58.0912C145.228 56.3556 145.269 56.0503 145.084 55.4953C145.084 55.3509 144.795 55.3509 144.795 55.4953C144.599 56.1494 144.55 56.8389 144.651 57.5143C144.635 58.2438 144.538 58.9693 144.363 59.6777C144.224 60.2467 143.957 60.7764 143.582 61.2264C143.207 61.6765 142.734 62.0349 142.199 62.2745C141.122 62.6058 140.008 62.7997 138.882 62.8514C137.728 62.8514 136.43 62.9951 135.276 62.9951C133.401 62.9951 131.382 62.9951 129.507 63.1395C129.219 63.284 129.219 63.4284 129.362 63.4284Z" fill="#191919"/>
<path d="M95.7565 93.716C101.123 93.8329 116.211 94.198 119.555 93.8604C121.14 93.7034 122.746 93.5982 124.029 92.7065C125.639 91.5855 125.904 89.8216 125.904 88.0907C126.254 82.4961 126.323 78.5343 120.712 78.1394C117.831 77.9361 114.943 78.1394 111.913 78.1394C104.278 78.1394 104.77 78.2831 103.404 78.2831C103.346 78.2831 103.291 78.3059 103.251 78.3465C103.21 78.3872 103.187 78.4423 103.187 78.4997C103.187 78.5572 103.21 78.6123 103.251 78.6529C103.291 78.6936 103.346 78.7164 103.404 78.7164C103.981 78.7164 104.99 78.8483 105.712 78.8601C110.04 78.9323 114.365 78.5806 118.693 78.8601C121 79.0092 124.057 78.9959 124.894 81.7449C125.639 84.1893 125.468 87.5138 125.038 89.9661C124.457 93.2827 119.412 93.1123 116.816 93.139C109.751 93.2112 102.826 92.9946 95.7588 93.2834C95.612 93.4279 95.612 93.7128 95.7565 93.716Z" fill="#191919"/>
<path d="M148.401 82.0342C145.199 81.7147 127.599 81.9769 127.199 82.1786C126.911 82.323 127.344 90.8323 127.633 90.8323C131.244 90.5741 148.592 90.4257 149.989 90.1117C151.729 89.7192 152.728 87.8038 152.728 86.0729C152.873 83.7651 150.566 82.323 148.401 82.0342Z" fill="black"/>
<path d="M88.5447 52.0348C84.52 51.6255 80.4727 51.4808 76.429 51.6015C74.41 51.6015 72.391 51.6015 70.372 51.7459C69.3601 51.7219 68.3477 51.7702 67.3427 51.8904C66.3787 51.8601 65.4139 51.9082 64.4578 52.034C63.6553 52.2178 62.9144 52.6069 62.3076 53.1633C61.7009 53.7196 61.2491 54.4242 60.9967 55.2077C60.4197 56.6498 61.1451 58.2315 62.2943 59.2457C63.5947 60.2939 65.2443 60.8095 66.9101 60.6885C74.2514 60.6885 79.0486 60.738 86.5257 60.2552C86.8138 60.2552 86.8138 59.6782 86.5257 59.8227C80.8105 60.1612 75.0818 60.2094 69.3617 59.9671C67.7752 59.9671 65.9077 60.0896 64.3141 59.5346C63.022 59.084 61.5737 57.8076 61.5737 56.2172C61.6405 55.4698 61.9429 54.7628 62.4372 54.1982C62.8949 53.4707 63.6204 52.9525 64.457 52.7554C66.2123 52.4634 68.0288 52.7601 70.0823 52.4673C73.6344 52.4673 67.4039 52.3229 88.6868 52.3229C88.6892 52.2444 88.6892 52.1785 88.5447 52.0348Z" fill="#191919"/>
<path d="M150.998 22.0339C149.563 21.1532 147.824 21.3102 146.097 21.3102C118.06 21.3102 116.674 21.4193 116.674 22.0316C116.674 24.5377 116.529 27.0418 116.241 29.5314C116.186 29.5669 116.143 29.6188 116.119 29.6798C116.095 29.7409 116.09 29.8079 116.106 29.8716C116.122 29.9353 116.158 29.9924 116.208 30.0348C116.258 30.0773 116.32 30.103 116.385 30.1083C124.478 30.5707 134.662 30.1389 147.251 29.9639C148.549 29.9458 149.992 29.9639 151.145 29.1004C153.989 27.5194 154.147 23.9619 150.998 22.0339Z" fill="black"/>
<path d="M151.863 53.3313C150.565 52.0338 145.805 51.7449 145.805 52.3218C145.805 54.6297 145.805 59.9661 146.094 60.2542C146.479 60.5007 146.938 60.603 147.391 60.543C148.314 60.5833 149.238 60.486 150.132 60.2542C150.856 60.055 151.516 59.6712 152.047 59.1403C152.578 58.6094 152.962 57.9497 153.161 57.2257C153.247 56.5209 153.174 55.806 152.95 55.1325C152.725 54.4591 152.354 53.8439 151.863 53.3313V53.3313Z" fill="black"/>
<path d="M144.651 50.8814C142.296 47.3489 137.399 48.141 134.122 48.141C132.247 48.141 130.228 48.141 128.353 47.9965C116.366 47.9965 110.69 47.3795 108.305 48.5735C107.806 48.7419 107.346 49.0069 106.95 49.3533C106.554 49.6997 106.23 50.1208 105.997 50.5925C105.78 50.9956 105.629 51.4304 105.549 51.8807C103.574 51.8767 102.593 51.8328 102.391 52.0377V52.4702C102.589 52.6504 102.845 52.7528 103.113 52.7583C104.521 52.7583 105.121 52.8007 105.435 52.8054C105.386 53.5464 105.42 54.2859 105.42 54.9249C105.306 56.7148 105.445 58.5119 105.834 60.2628C103.394 60.2628 103.197 60.2204 102.824 60.4072L102.843 60.9842C102.922 61.0627 102.481 60.9842 106.102 60.9842C106.308 61.4722 106.609 61.9146 106.987 62.2859C107.365 62.6572 107.813 62.95 108.305 63.1476C109.862 63.6665 110.858 63.5801 117.535 63.5801C123.222 63.5801 126.955 63.4231 127.776 63.4365C127.833 63.4365 127.888 63.4137 127.929 63.373C127.969 63.3324 127.992 63.2773 127.992 63.2198C127.992 63.1624 127.969 63.1073 127.929 63.0666C127.888 63.026 127.833 63.0032 127.776 63.0032C126.912 63.0032 125.901 62.8595 125.035 62.8595H116.093C113.641 62.8595 110.324 63.4365 108.16 62.2825C107.553 61.9047 107.059 61.3706 106.729 60.7361C106.399 60.1017 106.246 59.3903 106.286 58.6763C106.141 56.5129 105.853 53.6288 106.429 51.4646C106.629 50.9012 106.978 50.4028 107.439 50.0226C109.384 48.0782 113.589 48.5806 137.583 48.5806C139.459 48.5806 141.333 48.5806 142.776 49.5901C143.466 50.0605 144.008 50.7166 144.339 51.4824C144.671 52.2482 144.779 53.0923 144.651 53.9169C144.795 54.0614 144.795 54.0614 144.94 53.9169C145.146 53.4265 145.228 52.8925 145.178 52.3628C145.127 51.833 144.946 51.324 144.651 50.8814Z" fill="#191919"/>
<path d="M113.497 53.0439C112.32 56.5662 113.785 59.995 113.785 58.6684C113.962 58.1385 114.134 51.7683 113.497 53.0439Z" fill="#191919"/>
<path d="M118.977 52.6112C118.703 53.5713 118.834 54.2063 118.834 57.3714C118.834 58.2584 118.9 58.669 119.554 58.669C119.959 58.3997 119.843 58.1799 119.843 55.7849C119.843 51.1292 118.805 52.6112 118.977 52.6112Z" fill="#191919"/>
<path d="M125.613 58.668C125.867 58.2873 125.546 50.7255 124.603 52.6103C124.682 52.6103 124.353 59.9319 125.613 58.668Z" fill="#191919"/>
<path d="M130.227 52.7546C130.068 54.3358 130.02 55.9261 130.083 57.514C130.083 57.9473 130.083 58.6679 130.371 58.9568C130.515 59.1012 130.764 59.095 130.804 58.9568C130.93 58.438 130.978 57.9034 130.948 57.3703C131.008 55.778 130.912 54.1836 130.66 52.6102C130.66 52.4665 130.227 52.4665 130.227 52.7546Z" fill="#191919"/>
<path d="M136.43 52.8998C136.43 52.9783 135.972 58.0807 136.863 58.8131C137.912 59.6727 137.404 54.9086 137.308 54.319C136.899 51.7976 136.442 52.5858 136.43 52.8998Z" fill="#191919"/>
<path d="M83.2079 22.899C82.6796 24.4846 83.1074 24.4556 82.7754 25.7838C82.7754 26.6473 82.6309 27.8028 83.0635 28.5242C83.2079 28.8123 83.4968 28.6678 83.4968 28.5242C83.6781 27.9794 83.6404 27.7392 83.6404 24.341C83.6404 23.9085 83.4968 23.4775 83.4968 22.899C83.6404 22.7545 83.3523 22.6101 83.2079 22.899Z" fill="#191919"/>
<path d="M88.6892 22.4668C88.3892 24.0343 88.2924 25.634 88.4011 27.2262C88.4011 27.6587 88.4011 28.3802 88.8336 28.5246H89.1217C89.5542 28.2357 89.4106 27.6611 89.4106 27.2262C89.5164 25.6339 89.4193 24.0346 89.1217 22.4668C88.9773 22.3224 88.6892 22.178 88.6892 22.4668Z" fill="#191919"/>
<path d="M99.9393 22.6102C99.781 24.1916 99.733 25.7822 99.7956 27.3703C99.7956 27.8029 99.7956 28.5243 100.084 28.8124C100.228 28.9568 100.506 28.9694 100.548 28.8288C100.663 28.3028 100.701 27.7628 100.661 27.2259C100.721 25.6338 100.625 24.0397 100.373 22.4665C100.373 22.3221 99.9393 22.3221 99.9393 22.6102Z" fill="#191919"/>
<path d="M106.141 22.7555C106.141 22.834 105.637 30.0387 107.004 28.6689C107.488 27.9451 106.82 23.5735 106.572 22.6111C106.506 22.3474 106.141 22.4675 106.141 22.7555Z" fill="#191919"/>
<path d="M106.863 83.0438C106.75 83.8351 106.815 88.6847 107.44 89.1016C107.465 89.135 107.498 89.1622 107.536 89.1809C107.573 89.1996 107.615 89.2094 107.657 89.2094C107.698 89.2094 107.74 89.1996 107.777 89.1809C107.815 89.1622 107.848 89.135 107.873 89.1016C108.33 88.4147 107.581 83.5368 107.44 83.0438C107.44 82.7549 107.005 82.7549 106.863 83.0438Z" fill="#191919"/>
<path d="M112.487 83.3323C112.329 84.9136 112.281 86.5039 112.344 88.0917C112.344 88.5251 112.344 89.2457 112.632 89.5345C112.776 89.6782 113.064 89.6782 113.064 89.5345C113.353 89.102 113.209 88.5251 113.209 87.9481C113.269 86.3558 113.173 84.7613 112.921 83.1879C112.921 82.8998 112.487 83.0443 112.487 83.3323Z" fill="#191919"/>
<path d="M119.699 87.6582C119.657 86.1511 119.464 84.6521 119.122 83.1837C119.031 82.8886 118.763 83.0142 118.689 83.3282C118.575 83.8489 118.526 84.3819 118.545 84.9146C118.545 86.4493 118.447 87.3206 118.545 87.8976C118.549 88.1485 118.602 88.3962 118.702 88.6265C118.801 88.8569 118.945 89.0653 119.126 89.2399C119.151 89.2736 119.183 89.3009 119.221 89.3197C119.258 89.3385 119.3 89.3483 119.342 89.3483C119.384 89.3483 119.425 89.3385 119.463 89.3197C119.5 89.3009 119.533 89.2736 119.558 89.2399C119.843 88.8121 119.699 88.2351 119.699 87.6582Z" fill="#191919"/>
<path d="M101.67 85.0636C101.67 85.785 101.526 86.5056 101.526 87.227V88.8135C101.526 89.1023 101.815 89.246 102.103 89.246C103.138 89.246 102.343 86.6861 102.103 85.208C102.03 84.7574 101.67 84.9191 101.67 85.0636Z" fill="#191919"/>
<path d="M75.1324 21.7448C74.5168 21.6107 73.8858 21.5621 73.257 21.6004C70.2261 21.6726 67.0555 21.3123 64.0262 21.7448C63.0274 21.9315 62.1164 22.4375 61.4302 23.1868C60.8393 23.9511 60.5188 24.8898 60.5188 25.8558C60.5188 26.8218 60.8393 27.7605 61.4302 28.5248C63.2137 30.8271 67.1214 29.9668 71.238 29.9668C72.3908 29.8946 73.547 29.8946 74.6998 29.9668C74.789 29.9575 74.8716 29.9154 74.9316 29.8488C74.9916 29.7822 75.0248 29.6957 75.0248 29.6061C75.0248 29.5164 74.9916 29.4299 74.9316 29.3633C74.8716 29.2967 74.789 29.2547 74.6998 29.2454C73.8355 29.1783 72.9673 29.1783 72.103 29.2454C71.0951 29.4024 69.9396 29.3898 68.9301 29.5343C65.885 29.5343 64.2923 29.6873 63.0167 28.9573C62.2465 28.4669 61.6962 27.6973 61.481 26.81C61.2659 25.9227 61.4027 24.9866 61.8627 24.1979C62.7262 22.7551 64.4587 22.467 66.046 22.467C68.4975 22.3226 70.9499 22.6106 73.4014 22.467C74.03 22.4908 74.6593 22.4423 75.2768 22.3226C75.2752 22.0337 75.2752 21.8892 75.1324 21.7448Z" fill="#191919"/>
<path d="M94.6654 22.5774C94.6323 22.7798 94.6116 22.984 94.6034 23.1889C94.6034 24.5108 94.5579 24.7298 94.7479 24.9198C95.0132 25.1851 95.3248 24.5273 95.3248 24.3428C95.3757 23.7573 95.344 23.1675 95.2306 22.5908C95.1788 22.4173 94.7039 22.3623 94.6654 22.5774Z" fill="#191919"/>
<path d="M45.2745 64.0058C45.4198 64.2186 45.6128 64.3945 45.838 64.5196C46.0633 64.6447 46.3146 64.7155 46.5721 64.7264C47.2935 64.7264 47.4356 65.159 47.0046 65.4478C46.678 65.6118 46.3007 65.6433 45.9514 65.5358C45.6022 65.4283 45.3079 65.1901 45.13 64.8709C44.6323 64.0929 44.6975 63.4288 45.2745 64.0058Z" fill="#191919"/>
<path d="M43.545 55.0655C43.317 55.0355 43.0853 55.0744 42.8797 55.1772C42.674 55.2801 42.5038 55.4421 42.3911 55.6425C41.9585 56.2195 41.5974 56.0884 41.6696 55.498C41.6899 55.135 41.8531 54.7948 42.1234 54.5517C42.3938 54.3085 42.7493 54.1823 43.1125 54.2005C44.1259 54.1981 44.2656 54.9187 43.545 55.0655Z" fill="#191919"/>
<path d="M44.1212 57.9482C44.7585 57.9482 45.2752 57.6252 45.2752 57.2268C45.2752 56.8284 44.7585 56.5054 44.1212 56.5054C43.4839 56.5054 42.9673 56.8284 42.9673 57.2268C42.9673 57.6252 43.4839 57.9482 44.1212 57.9482Z" fill="#191919"/>
</svg>
