<svg width="160" height="160" viewBox="0 0 160 160" fill="none" xmlns="http://www.w3.org/2000/svg">
<path d="M30.0932 72.5882C30.0932 72.5882 52.248 71.701 57.0357 35.2833C61.2873 2.94077 98.6461 17.6619 109.445 30.5544C123.434 47.2555 115.977 75.9849 134.074 79.6143C152.171 83.2437 140.353 123.596 112.883 119.733C78.7117 114.929 86.9793 134.897 76.7212 143.348C69.3592 149.414 39.1722 143.575 38.1662 121.556C37.3195 103.027 29.5037 103.086 23.9638 100.985C15.9739 97.9546 10.9394 76.0098 30.0932 72.5882Z" fill="#E1D7FF"/>
<path d="M105.407 113.033L83.6406 91.5244L79.3306 95.8863L101.097 117.394L105.407 113.033Z" fill="#BAA6FF"/>
<path d="M113.722 118.812L96.7874 102.078C96.6931 101.985 96.5412 101.986 96.448 102.08L90.0385 108.567C89.9453 108.661 89.9462 108.813 90.0405 108.906L106.975 125.64C107.069 125.733 107.221 125.732 107.314 125.638L113.724 119.151C113.817 119.057 113.816 118.905 113.722 118.812Z" fill="#826DC7"/>
<path d="M64.3489 102.341C79.3235 102.341 91.4628 90.2019 91.4628 75.2273C91.4628 60.2526 79.3235 48.1133 64.3489 48.1133C49.3742 48.1133 37.2349 60.2526 37.2349 75.2273C37.2349 90.2019 49.3742 102.341 64.3489 102.341Z" fill="#826DC7"/>
<path d="M64.3488 97.9173C76.88 97.9173 87.0386 87.7587 87.0386 75.2274C87.0386 62.6962 76.88 52.5376 64.3488 52.5376C51.8175 52.5376 41.6589 62.6962 41.6589 75.2274C41.6589 87.7587 51.8175 97.9173 64.3488 97.9173Z" fill="#E1D7FF"/>
</svg>
