<svg width="160" height="160" viewBox="0 0 160 160" fill="none" xmlns="http://www.w3.org/2000/svg">
<path d="M105.785 25.2044C105.785 25.2044 86.5794 49.5317 55.8502 35.0204C25.121 20.509 -5.60787 59.7748 20.853 83.6753C47.3139 107.576 21.42 120.709 39.397 135.357C59.829 152.005 77.617 118.246 93.8352 125.928C129.629 142.883 156.147 136.171 150.172 116.539C139.684 82.0761 126.272 79.8345 136.515 61.9088C146.758 43.983 124.151 6.71205 105.785 25.2044Z" fill="#E1D7FF"/>
<path d="M113.673 83.6817C113.673 94.4347 108.911 104.081 101.377 110.63C94.8917 116.259 86.5899 119.353 78.0025 119.342C65.3202 119.342 54.1915 112.732 47.8655 102.761C44.4528 97.3659 42.5501 91.154 42.3559 84.7732C42.1617 78.3924 43.6831 72.0763 46.7615 66.4837C49.8399 60.8912 54.3624 56.2271 59.8575 52.9778C65.3525 49.7286 71.6187 48.0133 78.0025 48.0107C94.5434 48.0107 108.465 59.2715 112.485 74.5532C113.28 77.5308 113.679 80.6 113.673 83.6817V83.6817Z" fill="#BAA6FF"/>
<path d="M101.377 110.63C94.8916 116.259 86.5898 119.353 78.0024 119.342C65.3201 119.342 54.1914 112.732 47.8655 102.761C53.4299 98.2018 56.5674 98.6889 58.6592 99.471C60.9438 100.334 62.213 104.203 68.8132 100.395C75.4133 96.5873 80.744 105.726 83.2825 107.249C93.4365 106.518 98.7268 108.681 101.377 110.63Z" fill="#826DC7"/>
<path d="M112.485 74.5534C97.4068 78.1276 98.473 69.5475 96.9905 64.3486C95.4674 59.0178 94.452 60.7947 85.0596 68.1566C75.6671 75.5186 74.6515 63.5874 74.4791 61.5566C74.2963 59.5258 73.8902 58.7646 69.0671 59.3634C64.2439 59.9621 62.9747 56.2258 58.9131 58.7643C57.2275 59.8203 54.9327 59.343 52.8308 58.419C56.1347 55.1125 60.0591 52.4909 64.3787 50.7048C68.6984 48.9188 73.3282 48.0033 78.0025 48.011C94.5434 48.0109 108.465 59.2717 112.485 74.5534Z" fill="#826DC7"/>
<path d="M47.7134 45.3302C47.5501 45.8815 47.554 46.4689 47.7246 47.018C47.8951 47.5671 48.2247 48.0534 48.6716 48.4152C49.1184 48.777 49.6626 48.9982 50.2352 49.0508C50.8077 49.1034 51.3831 48.985 51.8884 48.7106C52.3937 48.4362 52.8063 48.0182 53.074 47.5093C53.3417 47.0004 53.4525 46.4236 53.3924 45.8517C53.3323 45.2799 53.1039 44.7387 52.7363 44.2966C52.3686 43.8546 51.8781 43.5314 51.3268 43.3681C50.5874 43.1493 49.7914 43.233 49.1138 43.601C48.4362 43.9689 47.9325 44.5909 47.7134 45.3302V45.3302Z" fill="#826DC7"/>
<path d="M46.2208 38.2734C45.1838 38.8328 44.2681 39.5924 43.5268 40.5081C42.7855 41.4239 42.2333 42.4777 41.9021 43.6084C41.8377 43.8229 41.8164 44.0481 41.8392 44.2709C41.862 44.4937 41.9286 44.7098 42.0351 44.9068C42.1416 45.1038 42.286 45.2778 42.4599 45.4189C42.6339 45.56 42.834 45.6654 43.0487 45.729C43.2635 45.7926 43.4887 45.8131 43.7114 45.7895C43.9341 45.7659 44.15 45.6985 44.3466 45.5913C44.5432 45.484 44.7167 45.339 44.8572 45.1646C44.9976 44.9901 45.1023 44.7896 45.1651 44.5747C45.3725 43.8739 45.7159 43.2208 46.1757 42.6528C46.6356 42.0848 47.2028 41.6129 47.845 41.2642C48.4872 40.9154 49.1919 40.6966 49.9187 40.6202C50.6455 40.5438 51.3802 40.6114 52.0809 40.819C52.2954 40.8834 52.5206 40.9047 52.7434 40.8819C52.9662 40.8591 53.1823 40.7925 53.3793 40.686C53.5763 40.5795 53.7503 40.4351 53.8914 40.2612C54.0325 40.0872 54.1379 39.8871 54.2015 39.6724C54.2651 39.4576 54.2856 39.2324 54.262 39.0097C54.2384 38.787 54.171 38.5711 54.0638 38.3745C53.9565 38.1779 53.8115 38.0044 53.6371 37.8639C53.4626 37.7235 53.2621 37.6188 53.0472 37.556C51.9184 37.2181 50.7339 37.1075 49.5621 37.2307C48.3903 37.3538 47.2546 37.7082 46.2208 38.2734V38.2734Z" fill="#826DC7"/>
<path d="M43.5467 33.3493C41.8618 34.2584 40.3739 35.4926 39.1693 36.9805C37.9646 38.4684 37.067 40.1806 36.5285 42.0177C36.4004 42.4504 36.4494 42.9163 36.6647 43.3129C36.8801 43.7095 37.2442 44.0042 37.6769 44.1324C38.1096 44.2605 38.5754 44.2115 38.972 43.9962C39.3686 43.7808 39.6634 43.4168 39.7915 42.9841C40.2078 41.5777 40.8971 40.2671 41.82 39.1271C42.7429 37.9872 43.8813 37.0402 45.1702 36.3402C46.4591 35.6403 47.8733 35.2011 49.3319 35.0477C50.7906 34.8943 52.2652 35.0298 53.6715 35.4464C53.886 35.5108 54.1111 35.5321 54.3339 35.5093C54.5567 35.4865 54.7728 35.4199 54.9699 35.3134C55.1669 35.2069 55.3409 35.0625 55.482 34.8886C55.6231 34.7146 55.7285 34.5145 55.792 34.2998C55.8556 34.085 55.8762 33.8598 55.8526 33.6371C55.8289 33.4144 55.7616 33.1985 55.6543 33.0019C55.5471 32.8053 55.4021 32.6318 55.2276 32.4913C55.0532 32.3509 54.8527 32.2462 54.6377 32.1834C52.8038 31.6346 50.8792 31.4551 48.9754 31.6552C47.0716 31.8554 45.2264 32.4312 43.5467 33.3493V33.3493Z" fill="#826DC7"/>
<path d="M56.2333 26.7988C53.6913 26.0458 51.0259 25.801 48.3893 26.0782C45.7527 26.3554 43.1966 27.1493 40.8668 28.4145C38.537 29.6797 36.4793 31.3914 34.8112 33.452C33.143 35.5125 31.8971 37.8814 31.1446 40.4235C31.0802 40.6381 31.0588 40.8632 31.0816 41.086C31.1044 41.3088 31.171 41.5249 31.2775 41.7219C31.3841 41.9189 31.5284 42.0929 31.7024 42.234C31.8763 42.3751 32.0764 42.4805 32.2912 42.5441C32.5059 42.6077 32.7311 42.6282 32.9538 42.6046C33.1765 42.581 33.3924 42.5136 33.589 42.4064C33.7856 42.2991 33.9592 42.1541 34.0996 41.9797C34.2401 41.8052 34.3447 41.6048 34.4075 41.3898C35.0331 39.2763 36.0689 37.3067 37.4558 35.5935C38.8427 33.8804 40.5535 32.4573 42.4905 31.4054C44.4274 30.3535 46.5526 29.6935 48.7447 29.463C50.9368 29.2326 53.1528 29.4362 55.2662 30.0623C55.6982 30.1882 56.1626 30.1379 56.5576 29.9223C56.9526 29.7067 57.2462 29.3434 57.374 28.9119C57.5019 28.4804 57.4537 28.0159 57.2399 27.6199C57.0261 27.2239 56.6642 26.9287 56.2333 26.7988V26.7988Z" fill="#826DC7"/>
</svg>
