<svg width="160" height="160" viewBox="0 0 160 160" fill="none" xmlns="http://www.w3.org/2000/svg">
<path d="M55.2204 29.7187C56.1388 30.6214 57.1061 31.4707 58.1811 32.1798C63.664 35.7969 79.9712 44.4881 105.767 40.8125C137.999 36.2199 133.391 68.6621 128.784 77.3213C124.176 85.9806 107.171 101.887 105.767 109.829C104.364 117.772 110.58 139.427 96.184 132.977C81.7875 126.526 73.4271 111.322 54.57 113.165C35.7129 115.008 22.3512 106.699 30.6446 91.7327C38.9381 76.7665 48.8846 67.0904 36.0788 50.5034C23.6284 34.3769 44.4386 19.1217 55.2204 29.7187Z" fill="#E8E1FF"/>
<path d="M39.3346 70.7693L105.569 57.869L103.021 44.7853C102.935 44.3428 102.762 43.9216 102.513 43.5458C102.264 43.17 101.944 42.8469 101.57 42.5949C101.196 42.343 100.776 42.1671 100.334 42.0774C99.8927 41.9877 99.4375 41.9859 98.995 42.0721L38.0618 64.234L39.3346 70.7693Z" fill="#826DC7"/>
<path d="M38.1018 64.4414L110.535 50.3342C111.576 50.1314 112.656 50.3506 113.535 50.9435C114.415 51.5364 115.023 52.4545 115.226 53.4958L123.556 96.2681C123.759 97.3094 123.54 98.3886 122.947 99.2683C122.354 100.148 121.436 100.756 120.395 100.959L51.8878 114.301C50.8465 114.504 49.7672 114.285 48.8875 113.692C48.0078 113.099 47.3997 112.181 47.1968 111.14L38.1018 64.4414Z" fill="#BAA6FF"/>
<path d="M91.9473 71.1415L117.267 66.2102C118.308 66.0074 119.388 66.2266 120.267 66.8195C121.147 67.4124 121.755 68.3305 121.958 69.3718L123.838 79.0272C124.041 80.0685 123.822 81.1477 123.229 82.0274C122.636 82.9071 121.718 83.5153 120.677 83.7181L95.3571 88.6494C95.1579 88.6882 94.9514 88.6462 94.7831 88.5328C94.6147 88.4193 94.4984 88.2437 94.4596 88.0444L91.3424 72.0391C91.3036 71.8398 91.3455 71.6333 91.4589 71.465C91.5724 71.2967 91.748 71.1803 91.9473 71.1415V71.1415Z" fill="#826DC7"/>
<path d="M101.963 82.3589C104.219 82.3589 106.047 80.5308 106.047 78.2757C106.047 76.0207 104.219 74.1926 101.963 74.1926C99.7084 74.1926 97.8804 76.0207 97.8804 78.2757C97.8804 80.5308 99.7084 82.3589 101.963 82.3589Z" fill="#E8E1FF"/>
</svg>
